# xmcd
#
# Track frame offsets:
#	150
#	14075
#	28900
#	39690
#	53658
#	68862
#	80867
#	94386
#	108611
#	122374
#	135953
#	148540
#	161746
#	176005
#	191096
#	203521
#	215321
#	226593
#
# Disc length: 3182 seconds
#
# Revision: 0
# Processed by: cddbd v1.5.1PL0 Copyright (c) Steve Scherf et al.
# Submitted via: dBpowerAMP V4.0
#
DISCID=fe0c6c12
DTITLE=Ella Fitzgerald - The Quintessence, CD1
DYEAR=1900
DGENRE=Blues
TTITLE0=My Melancholy Baby
TTITLE1=All My Life
TTITLE2=Did You Mean It?
TTITLE3='Taint' What You Do
TTITLE4=Stairway To The Stars
TTITLE5=Deedle-de-dum
TTITLE6=Gulf Coast Blues
TTITLE7=Five O'clock Whistle
TTITLE8=My Man
TTITLE9=I Got It Bad
TTITLE10=Can't Help Lovin' That Man
TTITLE11=Cow Cow Boogie
TTITLE12=Into Each Life Some Rain Must Fall
TTITLE13=And Her Tears Flowed Like Wine
TTITLE14=I'm Beginning To See The Light
TTITLE15=It's Only a Paper Moon
TTITLE16=Flying Home I
TTITLE17=Stone Cold Dead In The Market
EXTD=
EXTT0=
EXTT1=
EXTT2=
EXTT3=
EXTT4=
EXTT5=
EXTT6=
EXTT7=
EXTT8=
EXTT9=
EXTT10=
EXTT11=
EXTT12=
EXTT13=
EXTT14=
EXTT15=
EXTT16=
EXTT17=
PLAYORDER=
